# xmcd CD database file
#
# Track frame offsets:
#	183
#	14408
#	31583
#	52328
#	66933
#	84765
#	101933
#	121258
#	148035
#	163875
#	193128
#
# Disc length: 2776 seconds
#
# Revision: 0
# Processed by: cddbd v1.5.1PL0 Copyright (c) Steve Scherf et al.
# Submitted via: CDex 1.51
#
DISCID=9a0ad60b
DTITLE=Various Artist - Tribute To Gram Parsons And Clarence White
DYEAR=1900
DGENRE=country rock
TTITLE0=Six White Horses
TTITLE1=Emmy
TTITLE2=Bugler
TTITLE3=Promised Land
TTITLE4=Freeborn Man
TTITLE5=Games People Play
TTITLE6=Detroit City
TTITLE7=Medley: Five Hundred Miles/Four Strong Winds/Shame on Me/Street of Balt
TTITLE8=Miller's Cave
TTITLE9=Christine's Tune (A.K.A. Devil in Disguise)
TTITLE10=Wheels
EXTD=
EXTT0=
EXTT1=
EXTT2=
EXTT3=
EXTT4=
EXTT5=
EXTT6=
EXTT7=
EXTT8=
EXTT9=
EXTT10=
PLAYORDER=
